<!-- fill="currentColor" -->
<!-- 
<svg>
  <use xlink:href="./assets/img/sprite/sprite.svg#key"></use>
</svg>
 -->

<svg display="none" xmlns="http://www.w3.org/2000/svg">
  <symbol id="key" viewBox="0 0 13.37 16.25">
    <g>
      <path fill="currentColor" d="M1464.22,94.933a3.43,3.43,0,0,0,.44-4.205l6.69-6.7a0.869,0.869,0,0,0-.03-1.229l-3.14-3.144-1.2,1.2,2.51,2.514-1.2,1.2-1.88-1.885-1.21,1.2,1.89,1.885-3.69,3.692a3.437,3.437,0,0,0-4.21.433A3.56,3.56,0,0,0,1464.22,94.933Zm-3.77-3.772a1.778,1.778,0,1,1,.06,2.459A1.743,1.743,0,0,1,1460.45,91.161Z" transform="translate(-1458.22 -79.656)"/>
    </g>
  </symbol>
  <symbol id="language" viewBox="0 0 16 16">
    <g>
      <path fill="currentColor" d="M752.654,43.34a8,8,0,1,0,0,11.313A7.994,7.994,0,0,0,752.654,43.34ZM752.32,53.512a7.964,7.964,0,0,0-1.2-.884,12.925,12.925,0,0,0,.483-3.122h2.352a6.923,6.923,0,0,1-1.64,4.006h0Zm-12.283-4.006h2.352a12.974,12.974,0,0,0,.482,3.122,8.015,8.015,0,0,0-1.195.884A6.915,6.915,0,0,1,740.037,49.506Zm1.639-5.026a8.026,8.026,0,0,0,1.195.885,12.968,12.968,0,0,0-.482,3.122h-2.352A6.916,6.916,0,0,1,741.676,44.48Zm4.812,0.99a6.922,6.922,0,0,1-2.376-.6c0.432-1.113,1.229-2.449,2.376-2.778v3.38Zm0,1.022v1.995h-3.079a12.02,12.02,0,0,1,.386-2.643A7.952,7.952,0,0,0,746.488,46.492Zm0,3.014v2a7.935,7.935,0,0,0-2.693.648,12.023,12.023,0,0,1-.386-2.644h3.079Zm0,3.016V55.9c-1.147-.331-1.943-1.665-2.376-2.778A6.924,6.924,0,0,1,746.488,52.522Zm1.02,0a6.924,6.924,0,0,1,2.376.6c-0.432,1.113-1.229,2.448-2.376,2.778v-3.38Zm0-1.021v-2h3.08a11.963,11.963,0,0,1-.387,2.644,7.923,7.923,0,0,0-2.693-.648h0Zm0-3.015V46.492a7.94,7.94,0,0,0,2.693-.648,11.96,11.96,0,0,1,.387,2.643h-3.08Zm0-3.016V42.09c1.147,0.329,1.944,1.665,2.376,2.778A6.922,6.922,0,0,1,747.508,45.47ZM749.8,42.6a6.98,6.98,0,0,1,1.807,1.154,6.845,6.845,0,0,1-.821.623A7.682,7.682,0,0,0,749.8,42.6Zm-6.586,1.776a6.916,6.916,0,0,1-.82-0.623A6.963,6.963,0,0,1,744.2,42.6a7.686,7.686,0,0,0-.987,1.776h0Zm0,9.242a7.678,7.678,0,0,0,.987,1.776,6.954,6.954,0,0,1-1.807-1.154A7,7,0,0,1,743.212,53.618Zm7.572,0a6.927,6.927,0,0,1,.821.622,6.971,6.971,0,0,1-1.807,1.154,7.674,7.674,0,0,0,.986-1.776h0Zm0.824-5.131a12.919,12.919,0,0,0-.483-3.122,7.947,7.947,0,0,0,1.2-.885,6.923,6.923,0,0,1,1.64,4.007h-2.352Z" transform="translate(-739 -41)"/>
    </g>
  </symbol>
  <symbol id="email" viewBox="0 0 16 11">
    <g>
      <path fill="currentColor" d="M1060.12,44h-12.25a1.818,1.818,0,0,0-1.87,1.755v7.49A1.818,1.818,0,0,0,1047.87,55h12.25a1.82,1.82,0,0,0,1.88-1.755V45.753A1.82,1.82,0,0,0,1060.12,44Zm0.63,9.244a0.608,0.608,0,0,1-.63.585h-12.25a0.606,0.606,0,0,1-.62-0.585V45.753a0.606,0.606,0,0,1,.62-0.586h12.25a0.608,0.608,0,0,1,.63.586v7.49Zm-0.11-8.515L1054,49.354l-6.64-4.626-0.75.939,7.39,5.145,7.39-5.145Z" transform="translate(-1046 -44)"/>
    </g>
  </symbol>
  <symbol id="phone" viewBox="0 0 16 16">
    <g>
      <path fill="currentColor" d="M1271,51.89a2.341,2.341,0,0,0-.73-1.626,5.768,5.768,0,0,0-2.3-1.53,2.565,2.565,0,0,0-2.64.751c-0.01,0-.01,0-0.01,0l-0.84.838a12.628,12.628,0,0,1-2.67-2.061l-0.08-.083a12.725,12.725,0,0,1-2.06-2.664l0.84-.845v0a2.563,2.563,0,0,0,.75-2.645,5.705,5.705,0,0,0-1.53-2.3,2.35,2.35,0,0,0-1.62-.726,2.374,2.374,0,0,0-1.68.607l-0.02.016a0.043,0.043,0,0,1-.02.023A5.051,5.051,0,0,0,1255,43.36a11.824,11.824,0,0,0,3.78,7.86,13.834,13.834,0,0,0,1.5,1.3,0.617,0.617,0,0,0,.87-0.115,0.628,0.628,0,0,0-.11-0.876,14.214,14.214,0,0,1-1.38-1.2,10.626,10.626,0,0,1-3.41-6.982,3.837,3.837,0,0,1,1.01-2.813l0.01,0a1.116,1.116,0,0,1,1.56.057c1.62,1.678,1.5,2.47.79,3.2l-1.16,1.167a0.639,0.639,0,0,0-.13.695,12.582,12.582,0,0,0,2.52,3.41l0.08,0.082a12.518,12.518,0,0,0,3.41,2.513,0.618,0.618,0,0,0,.69-0.128l1.17-1.158c0.73-.715,1.53-0.832,3.2.786a1.122,1.122,0,0,1,.06,1.566v0.005a3.867,3.867,0,0,1-2.79,1.013h-0.03a8.116,8.116,0,0,1-3.08-.73,0.626,0.626,0,0,0-.5,1.148,9.239,9.239,0,0,0,3.58.833h0.03a5.057,5.057,0,0,0,3.68-1.391l0.03-.024,0.01-.018A2.4,2.4,0,0,0,1271,51.89Z" transform="translate(-1255 -39)"/>
    </g>
  </symbol>
  <symbol id="vk" viewBox="0 0 17.37 9.438">
    <g>
      <path fill="currentColor" d="M1378.16,86.694a7.415,7.415,0,0,0-1.72-1.9c-1.45-1.284-1.26-1.075.49-3.3,1.07-1.352,1.49-2.178,1.36-2.531a1.047,1.047,0,0,0-.91-0.248l-2.61.015a0.6,0.6,0,0,0-.33.057,0.7,0.7,0,0,0-.23.267,14.58,14.58,0,0,1-.97,1.936c-1.16,1.878-1.62,1.977-1.81,1.86-0.44-.271-0.33-1.092-0.33-1.674,0-1.82.29-2.579-.56-2.775a4.818,4.818,0,0,0-1.22-.115,5.853,5.853,0,0,0-2.16.21c-0.3.139-.53,0.447-0.39,0.465a1.2,1.2,0,0,1,.77.369,2.276,2.276,0,0,1,.26,1.124s0.15,2.142-.36,2.408c-0.35.183-.83-0.19-1.87-1.894a15.435,15.435,0,0,1-.93-1.838,0.8,0.8,0,0,0-.21-0.276,1.147,1.147,0,0,0-.41-0.153l-2.47.014a0.887,0.887,0,0,0-.51.165,0.5,0.5,0,0,0-.01.42,26.718,26.718,0,0,0,4.13,6.5,6.119,6.119,0,0,0,4.3,1.867h1.04a0.894,0.894,0,0,0,.47-0.2,0.67,0.67,0,0,0,.14-0.434s-0.02-1.324.63-1.519c0.63-.192,1.45,1.28,2.32,1.847a1.7,1.7,0,0,0,1.15.334l2.31-.031S1378.73,87.6,1378.16,86.694Z" transform="translate(-1360.97 -78.281)"/>
    </g>
  </symbol>
  <symbol id="fb" viewBox="0 0 8.69 18">
    <g>
      <path fill="currentColor" d="M1396.75,80.185v-2.25a1.1,1.1,0,0,1,1.08-1.125h1.09V74h-2.17a3.311,3.311,0,0,0-3.25,3.376v2.812h-2.17V83h2.17v9h3.25V83h2.17l1.08-2.812h-3.25Z" transform="translate(-1391.31 -74)"/>
    </g>
  </symbol>
  <symbol id="basket" viewBox="0 0 18 16">
    <g>
      <path fill="currentColor" d="M1606.26,82.911h-14.07l-0.21-2.261a0.741,0.741,0,0,0-.74-0.653h-1.5a0.717,0.717,0,1,0,0,1.434h0.83c0.45,4.878-.72-7.729.85,9.187a2.709,2.709,0,0,0,1.06,1.868,2.207,2.207,0,1,0,3.87.6h4.05A2.186,2.186,0,0,0,1602.51,96a2.174,2.174,0,1,0,0-4.347h-8.26a1.372,1.372,0,0,1-1.26-.807l11.81-.675a0.745,0.745,0,0,0,.68-0.541l1.5-5.827a0.727,0.727,0,0,0-.72-0.89h0Zm-12.02,11.652a0.74,0.74,0,1,1,.77-0.74A0.751,0.751,0,0,1,1594.24,94.563Zm8.27,0a0.74,0.74,0,1,1,.76-0.74A0.753,0.753,0,0,1,1602.51,94.563Zm1.66-5.794-11.38.649-0.47-5.074h12.99Z" transform="translate(-1589 -80)"/>
    </g>
  </symbol>
</svg>