<svg xmlns="http://www.w3.org/2000/svg" width="17.37" height="9.438" viewBox="0 0 17.37 9.438">
  <defs>
    <style>
      .cls-1 {
        fill: #c2c2c2;
        fill-rule: evenodd;
      }
    </style>
  </defs>
  <path id="Фигура_2" data-name="Фигура 2" class="cls-1" d="M1378.16,86.694a7.415,7.415,0,0,0-1.72-1.9c-1.45-1.284-1.26-1.075.49-3.3,1.07-1.352,1.49-2.178,1.36-2.531a1.047,1.047,0,0,0-.91-0.248l-2.61.015a0.6,0.6,0,0,0-.33.057,0.7,0.7,0,0,0-.23.267,14.58,14.58,0,0,1-.97,1.936c-1.16,1.878-1.62,1.977-1.81,1.86-0.44-.271-0.33-1.092-0.33-1.674,0-1.82.29-2.579-.56-2.775a4.818,4.818,0,0,0-1.22-.115,5.853,5.853,0,0,0-2.16.21c-0.3.139-.53,0.447-0.39,0.465a1.2,1.2,0,0,1,.77.369,2.276,2.276,0,0,1,.26,1.124s0.15,2.142-.36,2.408c-0.35.183-.83-0.19-1.87-1.894a15.435,15.435,0,0,1-.93-1.838,0.8,0.8,0,0,0-.21-0.276,1.147,1.147,0,0,0-.41-0.153l-2.47.014a0.887,0.887,0,0,0-.51.165,0.5,0.5,0,0,0-.01.42,26.718,26.718,0,0,0,4.13,6.5,6.119,6.119,0,0,0,4.3,1.867h1.04a0.894,0.894,0,0,0,.47-0.2,0.67,0.67,0,0,0,.14-0.434s-0.02-1.324.63-1.519c0.63-.192,1.45,1.28,2.32,1.847a1.7,1.7,0,0,0,1.15.334l2.31-.031S1378.73,87.6,1378.16,86.694Z" transform="translate(-1360.97 -78.281)"/>
</svg>
