<svg xmlns="http://www.w3.org/2000/svg" width="16" height="16" viewBox="0 0 16 16">
  <defs>
    <style>
      .cls-1 {
        fill: #019ec4;
        fill-rule: evenodd;
      }
    </style>
  </defs>
  <path id="Фигура_11" data-name="Фигура 11" class="cls-1" d="M1271,51.89a2.341,2.341,0,0,0-.73-1.626,5.768,5.768,0,0,0-2.3-1.53,2.565,2.565,0,0,0-2.64.751c-0.01,0-.01,0-0.01,0l-0.84.838a12.628,12.628,0,0,1-2.67-2.061l-0.08-.083a12.725,12.725,0,0,1-2.06-2.664l0.84-.845v0a2.563,2.563,0,0,0,.75-2.645,5.705,5.705,0,0,0-1.53-2.3,2.35,2.35,0,0,0-1.62-.726,2.374,2.374,0,0,0-1.68.607l-0.02.016a0.043,0.043,0,0,1-.02.023A5.051,5.051,0,0,0,1255,43.36a11.824,11.824,0,0,0,3.78,7.86,13.834,13.834,0,0,0,1.5,1.3,0.617,0.617,0,0,0,.87-0.115,0.628,0.628,0,0,0-.11-0.876,14.214,14.214,0,0,1-1.38-1.2,10.626,10.626,0,0,1-3.41-6.982,3.837,3.837,0,0,1,1.01-2.813l0.01,0a1.116,1.116,0,0,1,1.56.057c1.62,1.678,1.5,2.47.79,3.2l-1.16,1.167a0.639,0.639,0,0,0-.13.695,12.582,12.582,0,0,0,2.52,3.41l0.08,0.082a12.518,12.518,0,0,0,3.41,2.513,0.618,0.618,0,0,0,.69-0.128l1.17-1.158c0.73-.715,1.53-0.832,3.2.786a1.122,1.122,0,0,1,.06,1.566v0.005a3.867,3.867,0,0,1-2.79,1.013h-0.03a8.116,8.116,0,0,1-3.08-.73,0.626,0.626,0,0,0-.5,1.148,9.239,9.239,0,0,0,3.58.833h0.03a5.057,5.057,0,0,0,3.68-1.391l0.03-.024,0.01-.018A2.4,2.4,0,0,0,1271,51.89Z" transform="translate(-1255 -39)"/>
</svg>
