<svg xmlns="http://www.w3.org/2000/svg" width="18" height="16" viewBox="0 0 18 16">
  <path d="M1606.26,82.911h-14.07l-0.21-2.261a0.741,0.741,0,0,0-.74-0.653h-1.5a0.717,0.717,0,1,0,0,1.434h0.83c0.45,4.878-.72-7.729.85,9.187a2.709,2.709,0,0,0,1.06,1.868,2.207,2.207,0,1,0,3.87.6h4.05A2.186,2.186,0,0,0,1602.51,96a2.174,2.174,0,1,0,0-4.347h-8.26a1.372,1.372,0,0,1-1.26-.807l11.81-.675a0.745,0.745,0,0,0,.68-0.541l1.5-5.827a0.727,0.727,0,0,0-.72-0.89h0Zm-12.02,11.652a0.74,0.74,0,1,1,.77-0.74A0.751,0.751,0,0,1,1594.24,94.563Zm8.27,0a0.74,0.74,0,1,1,.76-0.74A0.753,0.753,0,0,1,1602.51,94.563Zm1.66-5.794-11.38.649-0.47-5.074h12.99Z" transform="translate(-1589 -80)"/>
</svg>
