<svg xmlns="http://www.w3.org/2000/svg" width="16" height="11" viewBox="0 0 16 11">
  <defs>
    <style>
      .cls-1 {
        fill: #019ec4;
        fill-rule: evenodd;
      }
    </style>
  </defs>
  <path id="Фигура_12" data-name="Фигура 12" class="cls-1" d="M1060.12,44h-12.25a1.818,1.818,0,0,0-1.87,1.755v7.49A1.818,1.818,0,0,0,1047.87,55h12.25a1.82,1.82,0,0,0,1.88-1.755V45.753A1.82,1.82,0,0,0,1060.12,44Zm0.63,9.244a0.608,0.608,0,0,1-.63.585h-12.25a0.606,0.606,0,0,1-.62-0.585V45.753a0.606,0.606,0,0,1,.62-0.586h12.25a0.608,0.608,0,0,1,.63.586v7.49Zm-0.11-8.515L1054,49.354l-6.64-4.626-0.75.939,7.39,5.145,7.39-5.145Z" transform="translate(-1046 -44)"/>
</svg>
