<svg xmlns="http://www.w3.org/2000/svg" width="16" height="16" viewBox="0 0 16 16">
  <path d="M752.654,43.34a8,8,0,1,0,0,11.313A7.994,7.994,0,0,0,752.654,43.34ZM752.32,53.512a7.964,7.964,0,0,0-1.2-.884,12.925,12.925,0,0,0,.483-3.122h2.352a6.923,6.923,0,0,1-1.64,4.006h0Zm-12.283-4.006h2.352a12.974,12.974,0,0,0,.482,3.122,8.015,8.015,0,0,0-1.195.884A6.915,6.915,0,0,1,740.037,49.506Zm1.639-5.026a8.026,8.026,0,0,0,1.195.885,12.968,12.968,0,0,0-.482,3.122h-2.352A6.916,6.916,0,0,1,741.676,44.48Zm4.812,0.99a6.922,6.922,0,0,1-2.376-.6c0.432-1.113,1.229-2.449,2.376-2.778v3.38Zm0,1.022v1.995h-3.079a12.02,12.02,0,0,1,.386-2.643A7.952,7.952,0,0,0,746.488,46.492Zm0,3.014v2a7.935,7.935,0,0,0-2.693.648,12.023,12.023,0,0,1-.386-2.644h3.079Zm0,3.016V55.9c-1.147-.331-1.943-1.665-2.376-2.778A6.924,6.924,0,0,1,746.488,52.522Zm1.02,0a6.924,6.924,0,0,1,2.376.6c-0.432,1.113-1.229,2.448-2.376,2.778v-3.38Zm0-1.021v-2h3.08a11.963,11.963,0,0,1-.387,2.644,7.923,7.923,0,0,0-2.693-.648h0Zm0-3.015V46.492a7.94,7.94,0,0,0,2.693-.648,11.96,11.96,0,0,1,.387,2.643h-3.08Zm0-3.016V42.09c1.147,0.329,1.944,1.665,2.376,2.778A6.922,6.922,0,0,1,747.508,45.47ZM749.8,42.6a6.98,6.98,0,0,1,1.807,1.154,6.845,6.845,0,0,1-.821.623A7.682,7.682,0,0,0,749.8,42.6Zm-6.586,1.776a6.916,6.916,0,0,1-.82-0.623A6.963,6.963,0,0,1,744.2,42.6a7.686,7.686,0,0,0-.987,1.776h0Zm0,9.242a7.678,7.678,0,0,0,.987,1.776,6.954,6.954,0,0,1-1.807-1.154A7,7,0,0,1,743.212,53.618Zm7.572,0a6.927,6.927,0,0,1,.821.622,6.971,6.971,0,0,1-1.807,1.154,7.674,7.674,0,0,0,.986-1.776h0Zm0.824-5.131a12.919,12.919,0,0,0-.483-3.122,7.947,7.947,0,0,0,1.2-.885,6.923,6.923,0,0,1,1.64,4.007h-2.352Z" transform="translate(-739 -41)"/>
</svg>
